<svg xmlns="http://www.w3.org/2000/svg" width="261.74" height="35" viewBox="0 0 261.74 35"><rect class="svg__rect" x="0" y="0" width="117.03" height="35" fill="#3BC4F3"/><rect class="svg__rect" x="115.03" y="0" width="146.71" height="35" fill="#005384"/><path class="svg__text" d="M17.33 22L14.22 22L14.22 13.47L17.14 13.47Q18.59 13.47 19.34 14.05Q20.10 14.63 20.10 15.78L20.10 15.78Q20.10 16.36 19.78 16.83Q19.47 17.30 18.86 17.56L18.86 17.56Q19.55 17.75 19.93 18.26Q20.31 18.78 20.31 19.51L20.31 19.51Q20.31 20.71 19.53 21.36Q18.76 22 17.33 22L17.33 22ZM15.70 18.15L15.70 20.82L17.35 20.82Q18.04 20.82 18.44 20.47Q18.83 20.13 18.83 19.51L18.83 19.51Q18.83 18.18 17.47 18.15L17.47 18.15L15.70 18.15ZM15.70 14.66L15.70 17.06L17.15 17.06Q17.84 17.06 18.23 16.75Q18.62 16.43 18.62 15.86L18.62 15.86Q18.62 15.23 18.26 14.95Q17.90 14.66 17.14 14.66L17.14 14.66L15.70 14.66ZM24.64 19.16L24.64 19.16L24.64 13.47L26.12 13.47L26.12 19.18Q26.12 20.03 26.55 20.48Q26.98 20.93 27.83 20.93L27.83 20.93Q29.54 20.93 29.54 19.13L29.54 19.13L29.54 13.47L31.02 13.47L31.02 19.17Q31.02 20.53 30.15 21.32Q29.28 22.12 27.83 22.12L27.83 22.12Q26.36 22.12 25.50 21.33Q24.64 20.55 24.64 19.16ZM37.15 22L35.67 22L35.67 13.47L37.15 13.47L37.15 22ZM47.32 22L41.96 22L41.96 13.47L43.44 13.47L43.44 20.82L47.32 20.82L47.32 22ZM53.12 14.66L50.49 14.66L50.49 13.47L57.25 13.47L57.25 14.66L54.59 14.66L54.59 22L53.12 22L53.12 14.66ZM68.37 22L66.40 13.47L67.87 13.47L69.20 19.88L70.82 13.47L72.07 13.47L73.68 19.89L74.99 13.47L76.46 13.47L74.49 22L73.07 22L71.45 15.77L69.79 22L68.37 22ZM82.10 22L80.62 22L80.62 13.47L82.10 13.47L82.10 22ZM88.59 14.66L85.95 14.66L85.95 13.47L92.72 13.47L92.72 14.66L90.06 14.66L90.06 22L88.59 22L88.59 14.66ZM97.96 22L96.48 22L96.48 13.47L97.96 13.47L97.96 17.02L101.77 17.02L101.77 13.47L103.25 13.47L103.25 22L101.77 22L101.77 18.21L97.96 18.21L97.96 22Z" fill="#FFFFFF"/><path class="svg__text" d="M131.60 22L129.22 22L129.22 13.60L133.06 13.60Q134.20 13.60 135.04 13.98Q135.88 14.35 136.34 15.06Q136.79 15.76 136.79 16.71L136.79 16.71Q136.79 17.66 136.34 18.35Q135.88 19.05 135.04 19.42Q134.20 19.80 133.06 19.80L133.06 19.80L131.60 19.80L131.60 22ZM131.60 15.47L131.60 17.93L132.92 17.93Q133.65 17.93 134.02 17.61Q134.39 17.29 134.39 16.71L134.39 16.71Q134.39 16.12 134.02 15.80Q133.65 15.47 132.92 15.47L132.92 15.47L131.60 15.47ZM141.12 17.80L141.12 17.80Q141.12 16.55 141.72 15.55Q142.33 14.56 143.39 14.00Q144.45 13.43 145.78 13.43L145.78 13.43Q147.11 13.43 148.18 14.00Q149.24 14.56 149.85 15.55Q150.45 16.55 150.45 17.80L150.45 17.80Q150.45 19.05 149.85 20.04Q149.24 21.04 148.18 21.60Q147.12 22.17 145.78 22.17L145.78 22.17Q144.45 22.17 143.39 21.60Q142.33 21.04 141.72 20.04Q141.12 19.05 141.12 17.80ZM143.51 17.80L143.51 17.80Q143.51 18.51 143.82 19.05Q144.12 19.60 144.63 19.90Q145.15 20.20 145.78 20.20L145.78 20.20Q146.42 20.20 146.94 19.90Q147.45 19.60 147.75 19.05Q148.05 18.51 148.05 17.80L148.05 17.80Q148.05 17.09 147.75 16.54Q147.45 16 146.94 15.70Q146.42 15.40 145.78 15.40L145.78 15.40Q145.14 15.40 144.63 15.70Q144.12 16 143.82 16.54Q143.51 17.09 143.51 17.80ZM157.26 22L154.54 13.60L156.99 13.60L158.67 18.96L160.45 13.60L162.63 13.60L164.33 19.01L166.09 13.60L168.36 13.60L165.63 22L163.09 22L161.49 16.89L159.80 22L157.26 22ZM179.61 22L172.87 22L172.87 13.60L179.46 13.60L179.46 15.44L175.23 15.44L175.23 16.85L178.96 16.85L178.96 18.63L175.23 18.63L175.23 20.17L179.61 20.17L179.61 22ZM186.80 22L184.42 22L184.42 13.60L188.26 13.60Q189.41 13.60 190.24 13.98Q191.08 14.35 191.54 15.06Q192.00 15.76 192.00 16.71L192.00 16.71Q192.00 17.62 191.57 18.30Q191.14 18.98 190.35 19.36L190.35 19.36L192.16 22L189.62 22L188.09 19.77L186.80 19.77L186.80 22ZM186.80 15.47L186.80 17.93L188.12 17.93Q188.85 17.93 189.22 17.61Q189.59 17.29 189.59 16.71L189.59 16.71Q189.59 16.12 189.22 15.79Q188.85 15.47 188.12 15.47L188.12 15.47L186.80 15.47ZM196.20 21.24L196.20 21.24L196.98 19.49Q197.54 19.86 198.28 20.09Q199.03 20.32 199.75 20.32L199.75 20.32Q201.11 20.32 201.12 19.64L201.12 19.64Q201.12 19.28 200.73 19.11Q200.34 18.93 199.47 18.74L199.47 18.74Q198.52 18.53 197.89 18.30Q197.25 18.06 196.80 17.55Q196.34 17.03 196.34 16.16L196.34 16.16Q196.34 15.39 196.76 14.77Q197.18 14.15 198.02 13.79Q198.85 13.43 200.06 13.43L200.06 13.43Q200.88 13.43 201.69 13.62Q202.50 13.80 203.11 14.17L203.11 14.17L202.38 15.93Q201.18 15.28 200.05 15.28L200.05 15.28Q199.34 15.28 199.01 15.49Q198.69 15.70 198.69 16.04L198.69 16.04Q198.69 16.37 199.08 16.54Q199.46 16.71 200.31 16.89L200.31 16.89Q201.27 17.10 201.90 17.33Q202.53 17.56 202.99 18.07Q203.46 18.58 203.46 19.46L203.46 19.46Q203.46 20.21 203.04 20.83Q202.62 21.44 201.78 21.80Q200.94 22.17 199.74 22.17L199.74 22.17Q198.72 22.17 197.75 21.92Q196.79 21.67 196.20 21.24ZM210.41 22L208.03 22L208.03 13.60L210.41 13.60L210.41 16.76L213.65 16.76L213.65 13.60L216.02 13.60L216.02 22L213.65 22L213.65 18.72L210.41 18.72L210.41 22ZM227.93 22L221.19 22L221.19 13.60L227.78 13.60L227.78 15.44L223.54 15.44L223.54 16.85L227.27 16.85L227.27 18.63L223.54 18.63L223.54 20.17L227.93 20.17L227.93 22ZM239.12 22L232.74 22L232.74 13.60L235.11 13.60L235.11 20.11L239.12 20.11L239.12 22ZM249.93 22L243.54 22L243.54 13.60L245.92 13.60L245.92 20.11L249.93 20.11L249.93 22Z" fill="#FFFFFF" x="128.03"/></svg>