<svg xmlns="http://www.w3.org/2000/svg" width="271.08" height="35" viewBox="0 0 271.08 35"><rect class="svg__rect" x="0" y="0" width="148.79" height="35" fill="#5D9741"/><rect class="svg__rect" x="146.79" y="0" width="124.28999999999999" height="35" fill="#C1D72F"/><path class="svg__text" d="M15.78 22L14.31 22L14.31 13.47L15.78 13.47L15.78 22ZM22.27 14.66L19.64 14.66L19.64 13.47L26.40 13.47L26.40 14.66L23.74 14.66L23.74 22L22.27 22L22.27 14.66ZM30.71 16.02L29.77 16.02L29.77 13L30.86 13L30.86 13.73L30.71 16.02ZM34.74 19.42L34.74 19.42L36.23 19.42Q36.23 20.15 36.71 20.55Q37.19 20.95 38.08 20.95L38.08 20.95Q38.86 20.95 39.25 20.63Q39.64 20.32 39.64 19.80L39.64 19.80Q39.64 19.24 39.24 18.94Q38.84 18.63 37.81 18.32Q36.78 18.01 36.17 17.63L36.17 17.63Q35.01 16.90 35.01 15.72L35.01 15.72Q35.01 14.69 35.85 14.02Q36.69 13.35 38.03 13.35L38.03 13.35Q38.92 13.35 39.62 13.68Q40.31 14.01 40.71 14.61Q41.11 15.22 41.11 15.96L41.11 15.96L39.64 15.96Q39.64 15.29 39.22 14.91Q38.80 14.54 38.02 14.54L38.02 14.54Q37.29 14.54 36.89 14.85Q36.49 15.16 36.49 15.71L36.49 15.71Q36.49 16.18 36.92 16.50Q37.36 16.81 38.35 17.10Q39.35 17.40 39.95 17.78Q40.56 18.16 40.84 18.65Q41.12 19.13 41.12 19.79L41.12 19.79Q41.12 20.86 40.30 21.49Q39.48 22.12 38.08 22.12L38.08 22.12Q37.16 22.12 36.38 21.77Q35.60 21.43 35.17 20.83Q34.74 20.22 34.74 19.42ZM52.16 22L50.62 22L53.84 13.47L55.17 13.47L58.40 22L56.86 22L56.16 20.01L52.85 20.01L52.16 22ZM54.51 15.28L53.27 18.82L55.74 18.82L54.51 15.28ZM69.82 22L68.33 22L68.33 13.47L73.75 13.47L73.75 14.66L69.82 14.66L69.82 17.20L73.25 17.20L73.25 18.38L69.82 18.38L69.82 22ZM83.49 22L77.91 22L77.91 13.47L83.45 13.47L83.45 14.66L79.40 14.66L79.40 17.02L82.90 17.02L82.90 18.19L79.40 18.19L79.40 20.82L83.49 20.82L83.49 22ZM88.47 22L86.93 22L90.15 13.47L91.48 13.47L94.71 22L93.16 22L92.46 20.01L89.16 20.01L88.47 22ZM90.81 15.28L89.57 18.82L92.05 18.82L90.81 15.28ZM100.34 14.66L97.71 14.66L97.71 13.47L104.47 13.47L104.47 14.66L101.81 14.66L101.81 22L100.34 22L100.34 14.66ZM108.10 19.16L108.10 19.16L108.10 13.47L109.57 13.47L109.57 19.18Q109.57 20.03 110.01 20.48Q110.44 20.93 111.28 20.93L111.28 20.93Q112.99 20.93 112.99 19.13L112.99 19.13L112.99 13.47L114.47 13.47L114.47 19.17Q114.47 20.53 113.60 21.32Q112.73 22.12 111.28 22.12L111.28 22.12Q109.82 22.12 108.96 21.33Q108.10 20.55 108.10 19.16ZM120.52 22L119.04 22L119.04 13.47L122.04 13.47Q123.52 13.47 124.32 14.13Q125.12 14.79 125.12 16.05L125.12 16.05Q125.12 16.90 124.71 17.48Q124.30 18.06 123.56 18.37L123.56 18.37L125.47 21.92L125.47 22L123.89 22L122.18 18.71L120.52 18.71L120.52 22ZM120.52 14.66L120.52 17.52L122.05 17.52Q122.80 17.52 123.22 17.15Q123.64 16.77 123.64 16.11L123.64 16.11Q123.64 15.43 123.25 15.05Q122.86 14.68 122.09 14.66L122.09 14.66L120.52 14.66ZM135.10 22L129.52 22L129.52 13.47L135.06 13.47L135.06 14.66L131.00 14.66L131.00 17.02L134.50 17.02L134.50 18.19L131.00 18.19L131.00 20.82L135.10 20.82L135.10 22Z" fill="#FFFFFF"/><path class="svg__text" d="M163.31 22L160.98 22L160.98 13.60L162.93 13.60L166.64 18.07L166.64 13.60L168.97 13.60L168.97 22L167.02 22L163.31 17.52L163.31 22ZM173.70 17.80L173.70 17.80Q173.70 16.55 174.31 15.55Q174.91 14.56 175.97 14.00Q177.04 13.43 178.37 13.43L178.37 13.43Q179.70 13.43 180.76 14.00Q181.83 14.56 182.43 15.55Q183.04 16.55 183.04 17.80L183.04 17.80Q183.04 19.05 182.43 20.04Q181.83 21.04 180.76 21.60Q179.70 22.17 178.37 22.17L178.37 22.17Q177.04 22.17 175.97 21.60Q174.91 21.04 174.31 20.04Q173.70 19.05 173.70 17.80ZM176.10 17.80L176.10 17.80Q176.10 18.51 176.40 19.05Q176.70 19.60 177.22 19.90Q177.74 20.20 178.37 20.20L178.37 20.20Q179.01 20.20 179.52 19.90Q180.04 19.60 180.34 19.05Q180.64 18.51 180.64 17.80L180.64 17.80Q180.64 17.09 180.34 16.54Q180.04 16 179.52 15.70Q179.01 15.40 178.37 15.40L178.37 15.40Q177.73 15.40 177.22 15.70Q176.70 16 176.40 16.54Q176.10 17.09 176.10 17.80ZM189.56 15.48L186.98 15.48L186.98 13.60L194.50 13.60L194.50 15.48L191.93 15.48L191.93 22L189.56 22L189.56 15.48ZM207.26 22L204.84 22L208.54 13.60L210.89 13.60L214.60 22L212.14 22L211.47 20.37L207.92 20.37L207.26 22ZM209.70 15.93L208.61 18.61L210.78 18.61L209.70 15.93ZM230.27 22L225.73 22L225.73 13.60L230.03 13.60Q231.64 13.60 232.48 14.19Q233.32 14.79 233.32 15.79L233.32 15.79Q233.32 16.39 233.02 16.87Q232.73 17.34 232.19 17.62L232.19 17.62Q232.91 17.87 233.31 18.41Q233.72 18.94 233.72 19.70L233.72 19.70Q233.72 20.80 232.83 21.40Q231.95 22 230.27 22L230.27 22ZM228.09 18.58L228.09 20.28L230.08 20.28Q231.33 20.28 231.33 19.43L231.33 19.43Q231.33 18.58 230.08 18.58L230.08 18.58L228.09 18.58ZM228.09 15.31L228.09 16.94L229.71 16.94Q230.92 16.94 230.92 16.12L230.92 16.12Q230.92 15.31 229.71 15.31L229.71 15.31L228.09 15.31ZM238.37 18.26L238.37 18.26L238.37 13.60L240.75 13.60L240.75 18.19Q240.75 20.20 242.34 20.20L242.34 20.20Q243.92 20.20 243.92 18.19L243.92 18.19L243.92 13.60L246.27 13.60L246.27 18.26Q246.27 20.13 245.23 21.15Q244.19 22.17 242.32 22.17L242.32 22.17Q240.44 22.17 239.41 21.15Q238.37 20.13 238.37 18.26ZM250.93 17.80L250.93 17.80Q250.93 16.54 251.52 15.54Q252.12 14.55 253.19 13.99Q254.26 13.43 255.60 13.43L255.60 13.43Q256.78 13.43 257.72 13.83Q258.65 14.22 259.27 14.97L259.27 14.97L257.76 16.33Q256.92 15.40 255.74 15.40L255.74 15.40Q255.73 15.40 255.72 15.40L255.72 15.40Q254.65 15.40 253.98 16.06Q253.32 16.71 253.32 17.80L253.32 17.80Q253.32 18.50 253.62 19.04Q253.93 19.59 254.46 19.89Q255.00 20.20 255.70 20.20L255.70 20.20Q256.39 20.20 256.98 19.93L256.98 19.93L256.98 17.62L259.08 17.62L259.08 21.10Q258.36 21.61 257.43 21.89Q256.49 22.17 255.55 22.17L255.55 22.17Q254.24 22.17 253.18 21.61Q252.12 21.05 251.52 20.05Q250.93 19.06 250.93 17.80Z" fill="#FFFFFF" x="159.79"/></svg>